<svg width="336" height="298" viewBox="0 0 336 298" fill="none" xmlns="http://www.w3.org/2000/svg">
<path d="M208.801 -141.201C197.205 -143.285 186.114 -135.565 184.029 -123.96L171.406 -53.7023L118.706 -98.2452C109.706 -105.852 96.2455 -104.716 88.6417 -95.7069L24.391 -19.5839C16.7871 -10.575 17.919 2.89493 26.9191 10.502L79.4986 54.9429L14.7379 78.3021C3.65267 82.3005 -2.09717 94.534 1.89522 105.626L35.63 199.354C39.6224 210.446 51.8452 216.197 62.9304 212.198L127.84 188.786L116.072 254.284C113.987 265.889 121.697 276.986 133.294 279.07L231.279 296.674C242.875 298.758 253.966 291.038 256.051 279.433L267.791 214.09L320.25 258.429C329.25 266.036 342.71 264.9 350.314 255.891L414.565 179.768C422.168 170.759 421.036 157.289 412.036 149.682L359.457 105.241L424.218 81.8821C435.303 77.8836 441.053 65.6501 437.06 54.5578L403.326 -39.1696C399.333 -50.262 387.11 -56.0127 376.025 -52.0143L311.413 -28.7087L324.008 -98.8108C326.093 -110.416 318.383 -121.513 306.786 -123.597L208.801 -141.201Z" fill="#55CFF9"/>
</svg>
