<svg width="340" height="550" viewBox="0 0 340 550" fill="none" xmlns="http://www.w3.org/2000/svg">
<path d="M-84.3589 0C-103.432 0 -118.893 15.491 -118.893 34.6V150.283L-215.612 94.3368C-232.13 84.7823 -253.251 90.4524 -262.787 107.001L-343.367 246.836C-352.904 263.384 -347.245 284.546 -330.727 294.1L-234.23 349.918L-330.727 405.737C-347.245 415.291 -352.904 436.452 -343.367 453.001L-262.787 592.836C-253.251 609.384 -232.13 615.055 -215.612 605.5L-118.893 549.554V657.4C-118.893 676.509 -103.432 692 -84.3589 692H76.8019C95.8748 692 111.336 676.509 111.336 657.4V549.81L207.612 605.5C224.13 615.055 245.251 609.384 254.787 592.836L335.367 453.001C344.904 436.452 339.245 415.291 322.727 405.737L226.23 349.918L322.727 294.1C339.245 284.545 344.904 263.384 335.367 246.835L254.787 107.001C245.251 90.4523 224.13 84.7822 207.612 94.3368L111.336 150.027V34.6C111.336 15.4909 95.8748 0 76.8019 0H-84.3589Z" fill="#55CFF9"/>
</svg>
