<svg width="30" height="30" viewBox="0 0 30 30" fill="none" xmlns="http://www.w3.org/2000/svg">
<path d="M22.5 16.2451H16.25V22.4951C16.25 22.8266 16.1183 23.1446 15.8839 23.379C15.6495 23.6134 15.3315 23.7451 15 23.7451C14.6685 23.7451 14.3505 23.6134 14.1161 23.379C13.8817 23.1446 13.75 22.8266 13.75 22.4951V16.2451H7.5C7.16848 16.2451 6.85054 16.1134 6.61612 15.879C6.3817 15.6446 6.25 15.3266 6.25 14.9951C6.25 14.6636 6.3817 14.3457 6.61612 14.1112C6.85054 13.8768 7.16848 13.7451 7.5 13.7451H13.75V7.49512C13.75 7.1636 13.8817 6.84565 14.1161 6.61123C14.3505 6.37681 14.6685 6.24512 15 6.24512C15.3315 6.24512 15.6495 6.37681 15.8839 6.61123C16.1183 6.84565 16.25 7.1636 16.25 7.49512V13.7451H22.5C22.8315 13.7451 23.1495 13.8768 23.3839 14.1112C23.6183 14.3457 23.75 14.6636 23.75 14.9951C23.75 15.3266 23.6183 15.6446 23.3839 15.879C23.1495 16.1134 22.8315 16.2451 22.5 16.2451Z" fill="#3D8BFC"/>
</svg>
